<svg xmlns="http://www.w3.org/2000/svg" width="34" height="34" fill="none"><path fill="#0796D3" d="m8.919 2.364 3.88 14.41V.932c.308-.071.62-.134.933-.188v16.033L18.097.568c.315.028.627.065.936.11l-4.4 16.34 8.746-15.073c.285.127.566.263.842.406L15.442 17.48 27.975 5.01c.226.212.446.431.66.656L16.1 18.138l15.207-8.736c.143.275.28.554.407.838l-15.145 8.7 16.417-4.377c.046.308.083.618.112.931l-16.29 4.343h16.114c-.055.313-.118.622-.19.928H16.805l14.486 3.862a16.53 16.53 0 0 1-.47.836l-14.253-3.8 11.905 6.839c-.226.23-.458.454-.696.672l-11.674-6.707 8.833 8.79c-.28.162-.564.317-.853.463l-8.64-8.597 5.66 9.756c-.31.088-.623.166-.94.236l-5.53-9.53 2.666 9.9a17.04 17.04 0 0 1-.962.013l-2.605-9.673v9.432a16.657 16.657 0 0 1-.932-.188v-9.243l-2.297 8.53a16.471 16.471 0 0 1-.867-.37l2.262-8.399-4.246 7.318c-.263-.167-.52-.342-.773-.524l4.213-7.26-5.9 5.87a16.66 16.66 0 0 1-.66-.656l5.898-5.868-7.295 4.19a16.508 16.508 0 0 1-.526-.77l7.358-4.226-8.446 2.252c-.131-.283-.255-.57-.37-.862l8.572-2.286H.433a16.342 16.342 0 0 1-.189-.928H9.72l-9.718-2.59a16.746 16.746 0 0 1 .013-.958l9.95 2.653-9.578-5.503c.07-.315.149-.627.236-.936l9.81 5.636L1.79 9.538c.147-.289.302-.572.465-.85l8.838 8.793-6.743-11.62c.218-.237.444-.468.675-.692L11.9 17.016 8.079 2.832c.275-.164.555-.32.84-.468Z"/></svg>