<svg xmlns="http://www.w3.org/2000/svg" width="107" height="16" fill="none"><path fill="#101828" d="M.604 15.432h3.61V9.195h7.196V6.024H4.213V3.357h7.661V.207H.604v15.225ZM18.008 6.486c1.372 0 2.47.84 2.47 3.255 0 2.373-1.056 3.276-2.47 3.276-1.414 0-2.469-.903-2.469-3.276 0-2.415 1.098-3.255 2.47-3.255Zm0-2.688c-3.144 0-6.015 1.848-6.015 5.943s2.87 5.964 6.015 5.964c3.145 0 6.015-1.87 6.015-5.964 0-4.095-2.87-5.943-6.015-5.943ZM30.71 3.798c-3.44 0-5.804 2.33-5.804 5.922 0 3.59 2.069 5.985 5.804 5.985 2.28 0 5.002-1.071 5.783-4.431h-3.25c-.253 1.07-1.034 1.743-2.322 1.743-1.245 0-2.469-.82-2.469-3.276 0-2.415 1.224-3.255 2.47-3.255 1.034 0 1.857.462 2.173 1.785h3.25c-.675-3.402-3.27-4.473-5.635-4.473ZM44.676 8.376c-4.411.336-7.556 1.239-7.556 4.01 0 2.059 1.773 3.319 3.926 3.319 1.625 0 2.976-.441 3.82-1.638l.042 1.365h3.42c-.17-.714-.254-2.037-.254-3.276V10.98l.042-2.457c.063-3.423-1.794-4.746-5.065-4.746-3.377 0-5.403 1.89-5.572 4.01h3.25c.148-1.091.908-1.658 2.026-1.658 1.267 0 1.921.462 1.921 1.806v.44Zm.084 2.31c0 2.079-1.055 2.667-2.448 2.667-.907 0-1.604-.483-1.604-1.218 0-1.218 1.625-1.491 4.052-1.722v.273ZM53.386.207h-3.483v15.225h3.483V.207ZM55.606.207v15.225h3.61V10.16h2.279c3.967 0 6.943-.987 6.943-4.998 0-3.99-2.976-4.956-6.943-4.956h-5.889ZM61.6 3.23c1.689 0 3.018.336 3.018 1.932 0 1.596-1.33 1.974-3.018 1.974h-2.385V3.23H61.6ZM74.556 6.486c1.372 0 2.47.84 2.47 3.255 0 2.373-1.056 3.276-2.47 3.276-1.414 0-2.47-.903-2.47-3.276 0-2.415 1.098-3.255 2.47-3.255Zm0-2.688c-3.144 0-6.015 1.848-6.015 5.943s2.87 5.964 6.015 5.964c3.145 0 6.015-1.87 6.015-5.964 0-4.095-2.87-5.943-6.015-5.943ZM81.965 4.134v11.298h3.503V4.134h-3.503Zm0-3.927v2.772h3.482V.207h-3.482ZM91.023 4.134H87.54v11.298h3.483V9.636c0-2.1.612-3.066 2.11-3.066 1.689 0 1.752 1.323 1.752 2.94v5.922h3.483V8.649c0-3.066-.908-4.767-3.82-4.767-1.794 0-3.019.903-3.525 1.743V4.134ZM100.776 4.134h-1.794V6.59h1.794v5.67c0 2.625.949 3.17 3.756 3.17h2.216v-2.498h-.991c-1.161 0-1.499-.21-1.499-1.281V6.59h2.49V4.134h-2.49V1.047h-3.482v3.087Z"/></svg>